<svg width="32" height="32" viewBox="0 0 32 32" fill="none" xmlns="http://www.w3.org/2000/svg">
<g clip-path="url(#clip0_2019_10569)">
<g filter="url(#filter0_dd_2019_10569)">
<path d="M4.45605 4.45605L7.28448 14.3555L13.6484 17.8911L17.8911 13.6484L14.3555 7.28448L4.45605 4.45605Z" fill="black"/>
<path d="M20.0124 15.7698L18.5982 14.3555L14.3555 18.5982L15.7698 20.0124L20.0124 15.7698Z" fill="black"/>
<path fill-rule="evenodd" clip-rule="evenodd" d="M6.43672 15.0285L3 3L15.0285 6.43672L18.6972 13.0403L21.4266 15.7697L15.7697 21.4266L13.0403 18.6972L6.43672 15.0285ZM17.8911 13.6484L14.3555 7.28445L5.44597 4.73886L9.46612 8.75902C10.0237 8.49266 10.7117 8.5904 11.1735 9.05222C11.7593 9.638 11.7593 10.5877 11.1735 11.1735C10.5877 11.7593 9.638 11.7593 9.05222 11.1735C8.5904 10.7117 8.49266 10.0237 8.75902 9.46612L4.73886 5.44597L7.28445 14.3555L13.6484 17.8911L17.8911 13.6484ZM20.0124 15.7697L15.7697 20.0124L14.3555 18.5982L18.5982 14.3555L20.0124 15.7697Z" fill="white"/>
</g>
<g filter="url(#filter1_dd_2019_10569)">
<path fill-rule="evenodd" clip-rule="evenodd" d="M20.2573 22.3786L22.3786 20.2573L24.5 22.3786L26.6213 20.2573L28.7426 22.3786L26.6213 24.5L28.7426 26.6213L26.6213 28.7426L24.5 26.6213L22.3786 28.7426L20.2573 26.6213L22.3786 24.5L20.2573 22.3786ZM21.6715 22.3786L22.3786 21.6715L24.5 23.7929L26.6213 21.6715L27.3284 22.3786L25.2071 24.5L27.3284 26.6213L26.6213 27.3284L24.5 25.2071L22.3786 27.3284L21.6715 26.6213L23.7929 24.5L21.6715 22.3786Z" fill="white"/>
<path d="M22.3787 21.6719L21.6716 22.379L23.793 24.5003L21.6716 26.6216L22.3787 27.3287L24.5001 25.2074L26.6214 27.3287L27.3285 26.6216L25.2072 24.5003L27.3285 22.379L26.6214 21.6719L24.5001 23.7932L22.3787 21.6719Z" fill="black"/>
</g>
</g>
<defs>
<filter id="filter0_dd_2019_10569" x="-3" y="-2" width="30.4265" height="30.4268" filterUnits="userSpaceOnUse" color-interpolation-filters="sRGB">
<feFlood flood-opacity="0" result="BackgroundImageFix"/>
<feColorMatrix in="SourceAlpha" type="matrix" values="0 0 0 0 0 0 0 0 0 0 0 0 0 0 0 0 0 0 127 0" result="hardAlpha"/>
<feOffset dy="1"/>
<feGaussianBlur stdDeviation="1"/>
<feColorMatrix type="matrix" values="0 0 0 0 0 0 0 0 0 0 0 0 0 0 0 0 0 0 0.24 0"/>
<feBlend mode="normal" in2="BackgroundImageFix" result="effect1_dropShadow_2019_10569"/>
<feColorMatrix in="SourceAlpha" type="matrix" values="0 0 0 0 0 0 0 0 0 0 0 0 0 0 0 0 0 0 127 0" result="hardAlpha"/>
<feOffset dy="1"/>
<feGaussianBlur stdDeviation="3"/>
<feColorMatrix type="matrix" values="0 0 0 0 0 0 0 0 0 0 0 0 0 0 0 0 0 0 0.16 0"/>
<feBlend mode="normal" in2="effect1_dropShadow_2019_10569" result="effect2_dropShadow_2019_10569"/>
<feBlend mode="normal" in="SourceGraphic" in2="effect2_dropShadow_2019_10569" result="shape"/>
</filter>
<filter id="filter1_dd_2019_10569" x="14.2573" y="15.2573" width="20.4854" height="20.4854" filterUnits="userSpaceOnUse" color-interpolation-filters="sRGB">
<feFlood flood-opacity="0" result="BackgroundImageFix"/>
<feColorMatrix in="SourceAlpha" type="matrix" values="0 0 0 0 0 0 0 0 0 0 0 0 0 0 0 0 0 0 127 0" result="hardAlpha"/>
<feOffset dy="1"/>
<feGaussianBlur stdDeviation="1"/>
<feColorMatrix type="matrix" values="0 0 0 0 0 0 0 0 0 0 0 0 0 0 0 0 0 0 0.24 0"/>
<feBlend mode="normal" in2="BackgroundImageFix" result="effect1_dropShadow_2019_10569"/>
<feColorMatrix in="SourceAlpha" type="matrix" values="0 0 0 0 0 0 0 0 0 0 0 0 0 0 0 0 0 0 127 0" result="hardAlpha"/>
<feOffset dy="1"/>
<feGaussianBlur stdDeviation="3"/>
<feColorMatrix type="matrix" values="0 0 0 0 0 0 0 0 0 0 0 0 0 0 0 0 0 0 0.16 0"/>
<feBlend mode="normal" in2="effect1_dropShadow_2019_10569" result="effect2_dropShadow_2019_10569"/>
<feBlend mode="normal" in="SourceGraphic" in2="effect2_dropShadow_2019_10569" result="shape"/>
</filter>
<clipPath id="clip0_2019_10569">
<rect width="32" height="32" fill="white"/>
</clipPath>
</defs>
</svg>
