<svg width="34" height="34" viewBox="0 0 34 34" fill="none" xmlns="http://www.w3.org/2000/svg">
<g clip-path="url(#clip0_4734_52)">
<g filter="url(#filter0_dd_4734_52)">
<path fill-rule="evenodd" clip-rule="evenodd" d="M3 3L20.2968 12.9863L17.8134 13.5536C15.4693 14.089 13.9277 14.7055 12.7033 15.6451C11.4788 16.5848 10.4843 17.9146 9.3599 20.0407L8.16917 22.2922L3 3ZM8.47591 19.5732C8.71147 19.1278 8.94378 18.7119 9.17618 18.3229C10.9879 15.2906 12.8045 13.8963 16.2017 12.9314C16.6376 12.8076 17.0995 12.6909 17.5907 12.5787L4.59075 5.07312L8.47591 19.5732Z" fill="white"/>
<path d="M8.47598 19.5733L4.59082 5.07324L17.5908 12.5788C12.7796 13.6778 10.7836 15.21 8.47598 19.5733Z" fill="#141B22"/>
</g>
</g>
<defs>
<filter id="filter0_dd_4734_52" x="-3" y="-2" width="30" height="32" filterUnits="userSpaceOnUse" color-interpolation-filters="sRGB">
<feFlood flood-opacity="0" result="BackgroundImageFix"/>
<feColorMatrix in="SourceAlpha" type="matrix" values="0 0 0 0 0 0 0 0 0 0 0 0 0 0 0 0 0 0 127 0" result="hardAlpha"/>
<feOffset dy="1"/>
<feGaussianBlur stdDeviation="1"/>
<feColorMatrix type="matrix" values="0 0 0 0 0 0 0 0 0 0 0 0 0 0 0 0 0 0 0.24 0"/>
<feBlend mode="normal" in2="BackgroundImageFix" result="effect1_dropShadow_4734_52"/>
<feColorMatrix in="SourceAlpha" type="matrix" values="0 0 0 0 0 0 0 0 0 0 0 0 0 0 0 0 0 0 127 0" result="hardAlpha"/>
<feOffset dy="1"/>
<feGaussianBlur stdDeviation="3"/>
<feColorMatrix type="matrix" values="0 0 0 0 0 0 0 0 0 0 0 0 0 0 0 0 0 0 0.16 0"/>
<feBlend mode="normal" in2="effect1_dropShadow_4734_52" result="effect2_dropShadow_4734_52"/>
<feBlend mode="normal" in="SourceGraphic" in2="effect2_dropShadow_4734_52" result="shape"/>
</filter>
<clipPath id="clip0_4734_52">
<rect width="34" height="34" fill="white"/>
</clipPath>
</defs>
</svg>
